<svg width="20" height="21" viewBox="0 0 20 21" version="1.1" xmlns="http://www.w3.org/2000/svg" xmlns:xlink="http://www.w3.org/1999/xlink">
<title>Group</title>
<desc>Created using Figma</desc>
<g id="Canvas" transform="translate(10 11)">
<g id="Group">
<g id="Canvas">
<g id="Group">
<g id="Canvas">
<g id="Shape">
<g id="Vector">
<g id="Vector">
<use xlink:href="#path0_fill" transform="translate(-10 -10.5)" fill="#4F4F4F"/>
</g>
</g>
</g>
</g>
</g>
</g>
</g>
</g>
<defs>
<path id="path0_fill" fill-rule="evenodd" d="M 0 10C 0 15.5228 4.47709 20 10 20C 15.5229 20 20 15.5228 20 10C 20 4.47715 15.5229 0 10 0C 4.47709 0 0 4.47715 0 10ZM 19.0909 10C 19.0909 15.0207 15.0208 19.0909 10 19.0909C 4.97914 19.0909 0.909091 15.0207 0.909091 10C 0.909091 4.97925 4.97914 0.909091 10 0.909091C 15.0208 0.909091 19.0909 4.97925 19.0909 10ZM 9.77273 6.81818C 9.14509 6.81818 8.63636 6.30954 8.63636 5.68182C 8.63636 5.0541 9.14509 4.54545 9.77273 4.54545C 10.4004 4.54545 10.9091 5.0541 10.9091 5.68182C 10.9091 6.30954 10.4004 6.81818 9.77273 6.81818ZM 8.18182 15.4545L 8.18182 15.9091L 11.8182 15.9091L 11.8182 15.4545L 10.9091 15.4545L 10.9091 8.63636L 10.9091 8.18182L 9.09091 8.18182L 8.18182 8.18182L 8.18182 8.63636L 9.09091 8.63636L 9.09091 15.4545L 8.18182 15.4545Z"/>
</defs>
</svg>
