<svg width="376" height="20" viewBox="0 0 376 20" version="1.1" xmlns="http://www.w3.org/2000/svg" xmlns:xlink="http://www.w3.org/1999/xlink">
<title>Group</title>
<desc>Created using Figma</desc>
<g id="Canvas" transform="translate(777 434)">
<g id="Group">
<g id="Canvas">
<g id="UI Bars / Status Bars / Black / Base">
<g id="Background">
<g id="Vector">
<use xlink:href="#path0_fill" transform="translate(-776.5 -434)" fill="#000000" fill-opacity="0.01"/>
</g>
</g>
<g id="GS">
<g id="Vector">
<use xlink:href="#path1_fill" transform="translate(-749.75 -429.154)" fill="#FFFFFF"/>
</g>
</g>
<g id="battery">
<g id="100%">
<g id="Vector">
<use xlink:href="#path2_fill" transform="translate(-462.932 -428.154)" fill="#FFFFFF"/>
</g>
</g>
<g id="Battery">
<g id="Rectangle" opacity="0.4">
<mask id="mask0_alpha" mask-type="alpha">
<g id="mask0 outline ins" opacity="0.4">
<g id="Vector" opacity="0.4">
<use xlink:href="#path3_fill" transform="translate(-430.5 -429)" fill="#FFFFFF"/>
</g>
</g>
</mask>
<g id="Group" opacity="0.4" mask="url(#mask0_alpha)">
<g id="Vector" opacity="0.4">
<use xlink:href="#path4_fill" transform="translate(-431.5 -430)" fill="#FFFFFF"/>
</g>
</g>
</g>
<g id="Combined Shape">
<g id="Vector">
<use xlink:href="#path5_fill" transform="translate(-407.5 -425.5)" fill="#FFFFFF" fill-opacity="0.5"/>
</g>
</g>
<g id="Rectangle">
<g id="Vector">
<use xlink:href="#path6_fill" transform="translate(-428.5 -427)" fill="#FFFFFF"/>
</g>
</g>
</g>
</g>
<g id="Time">
<g id="Vector">
<use xlink:href="#path7_fill" transform="translate(-612.475 -429.166)" fill="#FFFFFF"/>
</g>
</g>
<g id="Wifi">
<g id="Vector">
<use xlink:href="#path8_fill" transform="translate(-731 -428.5)" fill="#FFFFFF"/>
</g>
</g>
<g id="Mobile Signal">
<g id="Vector">
<use xlink:href="#path9_fill" transform="translate(-769.5 -429)" fill="#FFFFFF"/>
</g>
</g>
</g>
</g>
</g>
</g>
<defs>
<path id="path0_fill" fill-rule="evenodd" d="M 0 0L 0 20L 375 20L 375 0L 0 0Z"/>
<path id="path1_fill" d="M 7.42383 5.38477L 7.42383 4.35352L 3.99609 4.35352L 3.99609 5.2793L 6.375 5.2793L 6.375 5.48438C 6.375 6.91407 5.34961 7.8809 3.83789 7.8809C 2.13867 7.8809 1.08398 6.55664 1.08398 4.42383C 1.08398 2.32032 2.15625 0.97266 3.83203 0.97266C 5.08594 0.97266 5.93555 1.57618 6.29883 2.71875L 7.37109 2.71875C 7.06641 1.04297 5.70703 2.55585e-08 3.83203 2.55585e-08C 1.51758 2.55585e-08 0 1.75196 0 4.42383C 0 7.13086 1.49414 8.8535 3.83203 8.8535C 5.99414 8.8535 7.42383 7.47071 7.42383 5.38477ZM 8.88867 6.44532C 9 7.9043 10.2363 8.8535 12.0293 8.8535C 13.9629 8.8535 15.1875 7.8633 15.1875 6.31055C 15.1875 5.06836 14.4844 4.38868 12.7324 3.94922L 11.8477 3.71485C 10.6816 3.41602 10.2188 3.03516 10.2188 2.37305C 10.2188 1.51758 10.9629 0.95508 12.0879 0.95508C 13.1426 0.95508 13.8574 1.47071 14.0039 2.33789L 15.0645 2.33789C 14.9766 0.97266 13.7578 2.55585e-08 12.123 2.55585e-08C 10.3359 2.55585e-08 9.13477 0.97266 9.13477 2.40821C 9.13477 3.60938 9.7969 4.30078 11.3262 4.6875L 12.4102 4.96875C 13.5762 5.26172 14.1035 5.71875 14.1035 6.43946C 14.1035 7.27735 13.2656 7.8926 12.1289 7.8926C 10.9277 7.8926 10.084 7.33008 9.9551 6.44532L 8.88867 6.44532Z"/>
<path id="path2_fill" d="M 2.24414 8.6543L 3.29883 8.6543L 3.29883 0.19922L 2.25 0.19922L 9.02557e-08 1.81641L 9.02557e-08 2.92969L 2.15039 1.3711L 2.24414 1.3711L 2.24414 8.6543ZM 8.66604 8.8535C 10.5644 8.8535 11.6543 7.24805 11.6543 4.44141C 11.6543 1.64063 10.5468 2.55585e-08 8.66604 2.55585e-08C 6.77344 2.55585e-08 5.66602 1.63477 5.66602 4.42383C 5.66602 7.23633 6.76174 8.8535 8.66604 8.8535ZM 8.66604 7.9336C 7.41794 7.9336 6.72654 6.68555 6.72654 4.42383C 6.72654 2.19141 7.42964 0.92578 8.66604 0.92578C 9.90234 0.92578 10.5937 2.17969 10.5937 4.42383C 10.5937 6.69141 9.91404 7.9336 8.66604 7.9336ZM 16.2246 8.8535C 18.123 8.8535 19.2128 7.24805 19.2128 4.44141C 19.2128 1.64063 18.1054 2.55585e-08 16.2246 2.55585e-08C 14.332 2.55585e-08 13.2246 1.63477 13.2246 4.42383C 13.2246 7.23633 14.3203 8.8535 16.2246 8.8535ZM 16.2246 7.9336C 14.9765 7.9336 14.2851 6.68555 14.2851 4.42383C 14.2851 2.19141 14.9882 0.92578 16.2246 0.92578C 17.4609 0.92578 18.1523 2.17969 18.1523 4.42383C 18.1523 6.69141 17.4726 7.9336 16.2246 7.9336ZM 24.0703 2.08594C 24.0703 0.89063 23.3261 0.0527399 22.2714 0.0527399C 21.2168 0.0527399 20.4668 0.89649 20.4668 2.08594C 20.4668 3.28125 21.2168 4.125 22.2714 4.125C 23.3261 4.125 24.0703 3.28125 24.0703 2.08594ZM 22.2714 3.375C 21.75 3.375 21.4043 2.86524 21.4043 2.08594C 21.4043 1.30664 21.7441 0.80274 22.2714 0.80274C 22.7988 0.80274 23.1328 1.29492 23.1328 2.08594C 23.1328 2.85938 22.7871 3.375 22.2714 3.375ZM 22.1777 8.6543L 25.0781 4.6875L 28.3593 0.19922L 27.2929 0.19922L 24.3281 4.24805L 21.0996 8.6543L 22.1777 8.6543ZM 28.9628 6.76172C 28.9628 5.56641 28.2187 4.72852 27.164 4.72852C 26.1093 4.72852 25.3593 5.57227 25.3593 6.76172C 25.3593 7.957 26.1093 8.8008 27.164 8.8008C 28.2187 8.8008 28.9628 7.957 28.9628 6.76172ZM 27.164 8.0508C 26.6425 8.0508 26.2968 7.54102 26.2968 6.76172C 26.2968 5.98242 26.6367 5.47852 27.164 5.47852C 27.6914 5.47852 28.0254 5.97071 28.0254 6.76172C 28.0254 7.53516 27.6796 8.0508 27.164 8.0508Z"/>
<path id="path3_fill" fill-rule="evenodd" d="M 0 2.5C 0 1.11929 1.11929 0 2.5 0L 19.5 0C 20.8807 0 22 1.11929 22 2.5L 22 8C 22 9.38071 20.8807 10.5 19.5 10.5L 18.4687 10.5L 2.5 10.5C 1.11929 10.5 0 9.38071 0 8L 0 2.5Z"/>
<path id="path4_fill" d="M 3.5 2L 20.5 2L 20.5 0L 3.5 0L 3.5 2ZM 22 3.5L 22 9L 24 9L 24 3.5L 22 3.5ZM 20.5 10.5L 19.4687 10.5L 19.4687 12.5L 20.5 12.5L 20.5 10.5ZM 19.4687 10.5L 3.5 10.5L 3.5 12.5L 19.4687 12.5L 19.4687 10.5ZM 2 9L 2 3.5L 0 3.5L 0 9L 2 9ZM 3.5 10.5C 2.67157 10.5 2 9.82843 2 9L 0 9C 0 10.933 1.567 12.5 3.5 12.5L 3.5 10.5ZM 19.4687 12.5C 19.4687 11.5 19.4687 10.5 19.4687 10.5C 19.4687 10.5 19.4687 11.5 19.4687 12.5L 19.4687 10.5C 19.4687 11.5 19.4687 12.5 19.4687 12.5C 19.4687 12.5 19.4687 11.5 19.4687 10.5L 19.4687 12.5ZM 22 9C 22 9.82843 21.3284 10.5 20.5 10.5L 20.5 12.5C 22.433 12.5 24 10.933 24 9L 22 9ZM 20.5 2C 21.3284 2 22 2.67157 22 3.5L 24 3.5C 24 1.567 22.433 0 20.5 0L 20.5 2ZM 3.5 0C 1.567 0 0 1.567 0 3.5L 2 3.5C 2 2.67157 2.67157 2 3.5 2L 3.5 0Z"/>
<path id="path5_fill" fill-rule="evenodd" d="M 0 3.87396C 0.862671 3.65195 1.5 2.86893 1.5 1.93698C 1.5 1.00504 0.862671 0.222015 0 0L 0 3.87396Z"/>
<path id="path6_fill" fill-rule="evenodd" d="M 0 1C 0 0.447715 0.447715 0 1 0L 17 0C 17.5523 0 18 0.447715 18 1L 18 5.5C 18 6.05228 17.5523 6.5 17 6.5L 1 6.5C 0.447715 6.5 0 6.05228 0 5.5L 0 1Z"/>
<path id="path7_fill" d="M 3.09375 8.87112C 5.24414 8.87112 6.52149 7.18946 6.52149 4.3418C 6.52149 3.26954 6.31641 2.36719 5.92383 1.66993C 5.35547 0.58594 4.37695 8.34656e-08 3.14063 8.34656e-08C 1.30078 8.34656e-08 7.85613e-10 1.23633 7.85613e-10 2.97071C 7.85613e-10 4.59961 1.17188 5.78321 2.7832 5.78321C 3.77344 5.78321 4.57617 5.32032 4.97461 4.51758L 4.99219 4.51758C 4.99219 4.51758 5.01563 4.51758 5.02149 4.51758C 5.0332 4.51758 5.07422 4.51758 5.07422 4.51758C 5.07422 6.45118 4.3418 7.60547 3.10547 7.60547C 2.37891 7.60547 1.81641 7.20704 1.62305 6.56836L 0.117187 6.56836C 0.36914 7.95702 1.54688 8.87112 3.09375 8.87112ZM 3.14649 4.58204C 2.17383 4.58204 1.48242 3.89063 1.48242 2.92383C 1.48242 1.98047 2.20899 1.25977 3.15234 1.25977C 4.0957 1.25977 4.82227 1.99219 4.82227 2.94727C 4.82227 3.89063 4.11328 4.58204 3.14649 4.58204ZM 9.17578 7.76952C 9.73242 7.76952 10.1133 7.3711 10.1133 6.84375C 10.1133 6.31055 9.73242 5.91797 9.17578 5.91797C 8.625 5.91797 8.23828 6.31055 8.23828 6.84375C 8.23828 7.3711 8.625 7.76952 9.17578 7.76952ZM 9.17578 3.375C 9.73242 3.375 10.1133 2.98243 10.1133 2.45508C 10.1133 1.92188 9.73242 1.5293 9.17578 1.5293C 8.625 1.5293 8.23828 1.92188 8.23828 2.45508C 8.23828 2.98243 8.625 3.375 9.17578 3.375ZM 15.2226 8.87692C 17.0976 8.87692 18.3574 7.66992 18.3574 5.90625C 18.3574 4.24805 17.2207 3.07032 15.6152 3.07032C 14.8008 3.07032 14.2031 3.35743 13.8281 3.86133L 13.7285 3.86133L 13.9336 1.48829L 17.8535 1.48829L 17.8535 0.21094L 12.7617 0.21094L 12.3223 5.07422L 13.6934 5.07422C 14.0039 4.55274 14.5488 4.24219 15.2461 4.24219C 16.2187 4.24219 16.8984 4.92774 16.8984 5.94141C 16.8984 6.94922 16.2246 7.61719 15.2344 7.61719C 14.3613 7.61719 13.6992 7.10157 13.6055 6.32227L 12.1875 6.32227C 12.2578 7.81052 13.4707 8.87692 15.2226 8.87692ZM 23.0976 8.87692C 25.0488 8.87692 26.3848 7.86912 26.3848 6.39844C 26.3848 5.3086 25.6582 4.45313 24.5566 4.24805L 24.5566 4.14844C 25.4648 3.91993 26.0391 3.19922 26.0391 2.29102C 26.0391 0.95508 24.8203 8.34656e-08 23.1035 8.34656e-08C 21.3867 8.34656e-08 20.1621 0.95508 20.1621 2.29102C 20.1621 3.19336 20.748 3.92579 21.6504 4.14844L 21.6504 4.24805C 20.543 4.48243 19.8223 5.33204 19.8223 6.4043C 19.8223 7.86912 21.1582 8.87692 23.0976 8.87692ZM 23.1035 7.69922C 22.084 7.69922 21.3808 7.11914 21.3808 6.2754C 21.3808 5.43164 22.084 4.85157 23.1035 4.85157C 24.1172 4.85157 24.8203 5.43164 24.8203 6.2754C 24.8203 7.11914 24.123 7.69922 23.1035 7.69922ZM 23.1035 3.69141C 22.2422 3.69141 21.6504 3.18164 21.6504 2.4375C 21.6504 1.68164 22.2363 1.16016 23.1035 1.16016C 23.9648 1.16016 24.5508 1.68164 24.5508 2.4375C 24.5508 3.18164 23.959 3.69141 23.1035 3.69141ZM 36.8437 8.66602L 38.4668 8.66602L 35.4609 0.21094L 33.7617 0.21094L 30.7617 8.66602L 32.291 8.66602L 33.0176 6.50391L 36.1289 6.50391L 36.8437 8.66602ZM 34.5293 1.82227L 34.6289 1.82227L 35.7773 5.3086L 33.3691 5.3086L 34.5293 1.82227ZM 48.6504 8.66602L 48.6504 0.21094L 46.8808 0.21094L 44.3379 6.36914L 44.2324 6.36914L 41.6894 0.21094L 39.9199 0.21094L 39.9199 8.66602L 41.3262 8.66602L 41.3262 2.71875L 41.4082 2.71875L 43.7461 8.33792L 44.8242 8.33792L 47.1621 2.71875L 47.2441 2.71875L 47.2441 8.66602L 48.6504 8.66602Z"/>
<path id="path8_fill" fill-rule="evenodd" d="M 6.48755 0C 9.05054 0 11.3629 1.03943 13 2.70688L 11.9119 3.76404C 10.5538 2.36554 8.62598 1.49222 6.48755 1.49222C 4.36292 1.49222 2.44604 2.35431 1.0896 3.73709L 0 2.68164C 1.6355 1.02896 3.9375 0 6.48755 0ZM 10.8236 4.82144C 9.74487 3.69174 8.20154 2.98447 6.48767 2.98447C 4.78833 2.98447 3.25671 3.67978 2.17932 4.79269L 3.26941 5.8486C 4.06726 5.00537 5.21375 4.47668 6.48767 4.47668C 7.77698 4.47668 8.93567 5.01825 9.73462 5.87933L 10.8236 4.82144ZM 8.64441 6.93851C 8.12634 6.34543 7.35229 5.9689 6.48755 5.9689C 5.63892 5.9689 4.87781 6.33142 4.36011 6.9053L 6.52246 9L 8.64441 6.93851Z"/>
<path id="path9_fill" fill-rule="evenodd" d="M 12.5 0C 12.2239 0 12 0.223846 12 0.5L 12 9C 12 9.27615 12.2239 9.5 12.5 9.5L 14 9.5C 14.2761 9.5 14.5 9.27615 14.5 9L 14.5 0.5C 14.5 0.223846 14.2761 0 14 0L 12.5 0ZM 8.5 2.5C 8.22388 2.5 8 2.72385 8 3L 8 9C 8 9.27615 8.22388 9.5 8.5 9.5L 10 9.5C 10.2761 9.5 10.5 9.27615 10.5 9L 10.5 3C 10.5 2.72385 10.2761 2.5 10 2.5L 8.5 2.5ZM 4 5C 4 4.72385 4.22388 4.5 4.5 4.5L 6 4.5C 6.27612 4.5 6.5 4.72385 6.5 5L 6.5 9C 6.5 9.27615 6.27612 9.5 6 9.5L 4.5 9.5C 4.22388 9.5 4 9.27615 4 9L 4 5ZM 0.5 6.5C 0.223877 6.5 0 6.72385 0 7L 0 9C 0 9.27615 0.223877 9.5 0.5 9.5L 2 9.5C 2.27612 9.5 2.5 9.27615 2.5 9L 2.5 7C 2.5 6.72385 2.27612 6.5 2 6.5L 0.5 6.5Z"/>
</defs>
</svg>
